<?xml version="1.0" encoding="iso-8859-1"?>
<!-- Generator: Adobe Illustrator 19.0.0, SVG Export Plug-In . SVG Version: 6.00 Build 0)  -->
<svg version="1.1" id="Capa_1" xmlns="http://www.w3.org/2000/svg" xmlns:xlink="http://www.w3.org/1999/xlink" x="0px" y="0px"
	 viewBox="0 0 512 512" style="enable-background:new 0 0 512 512;" xml:space="preserve">
<g>
	<g>
		<path d="M432.757,83.035l7.953-73.314H71.291l7.953,73.314C30.454,127.345,0,189.732,0,258.936
			C0,393.32,114.623,502.278,256,502.278S512,393.32,512,258.936C512,189.732,481.546,127.345,432.757,83.035z M93.975,327.291
			c-12.528,0-22.683-10.156-22.683-22.683c0-12.534,10.156-22.683,22.683-22.683c12.521,0,22.683,10.149,22.683,22.683
			C116.658,317.136,106.496,327.291,93.975,327.291z M129.62,243.038c0-10.733,8.704-19.443,19.443-19.443
			s19.443,8.711,19.443,19.443c0,10.733-8.704,19.449-19.443,19.449S129.62,253.771,129.62,243.038z M401.824,267.776h-0.001
			l-12.962,65.212l12.962,65.983l-5.806,0.058c-18.03,0-46.65-21.582-54.486-50.571c-19.133,20.816-47.007,55.821-91.856,55.821
			c-63.812,0-96.093-70.896-96.093-70.896s32.282-70.902,96.088-70.902c44.848,0,72.723,34.997,91.856,55.808
			c7.835-28.984,36.455-50.565,54.486-50.565h5.813V267.776z M419.114,190.101c-11.912-5.353-20.804-16.39-32.981-20.778
			c-12.787-4.614-27.408-1.854-37.609,7.11c-8.231,7.071-19.158,15.192-30.24,16.539c-10.253,1.245-22.307-8.12-29.851-14.005
			c-15.846-12.379-36.015-17.253-52.672-2.534c-7.966,6.824-20.474,16.864-31.608,16.617c-11.096,0.24-23.623-9.825-31.594-16.617
			c-14.583-12.897-34.797-11.452-49.567,0.007c-7.35,5.703-14.861,11.458-23.714,14.783c-10.052,3.888-18.322-1.387-26.884-6.773
			c-3.02-1.899-5.943-3.941-8.833-6.034c10.862-22.845,26.371-43.799,46.197-61.809c10.733-9.747,16.157-24.052,14.595-38.471
			l-2.508-23.047h268.314l-2.502,23.052c-1.562,14.421,3.863,28.724,14.595,38.471c21.245,19.307,37.571,41.978,48.478,66.748
			C441.085,190.063,430.76,195.344,419.114,190.101z"/>
	</g>
</g>
<g>
	<g>
		<circle cx="218.389" cy="320.812" r="19.443"/>
	</g>
</g>
<g>
</g>
<g>
</g>
<g>
</g>
<g>
</g>
<g>
</g>
<g>
</g>
<g>
</g>
<g>
</g>
<g>
</g>
<g>
</g>
<g>
</g>
<g>
</g>
<g>
</g>
<g>
</g>
<g>
</g>
</svg>
